<svg width="120" height="120" viewBox="0 0 120 120" fill="none" xmlns="http://www.w3.org/2000/svg">
  <!-- Corazón con gradiente verde -->
  <defs>
    <linearGradient id="heartGradient" x1="0%" y1="0%" x2="100%" y2="100%">
      <stop offset="0%" style="stop-color:#22c55e;stop-opacity:1" />
      <stop offset="100%" style="stop-color:#16a34a;stop-opacity:1" />
    </linearGradient>
  </defs>
  
  <!-- Corazón principal -->
  <path d="M60 100C60 100 20 75 20 45C20 30 30 20 42.5 20C50 20 55 25 60 32C65 25 70 20 77.5 20C90 20 100 30 100 45C100 75 60 100 60 100Z" fill="url(#heartGradient)"/>
  
  <!-- Línea de pulso (ECG) -->
  <path d="M25 60L35 60L40 45L45 75L50 60L95 60" stroke="white" stroke-width="3" stroke-linecap="round" stroke-linejoin="round" fill="none"/>
  
  <!-- Cruz médica (símbolo +) -->
  <circle cx="85" cy="35" r="15" fill="#22c55e" opacity="0.9"/>
  <path d="M85 27V43M77 35H93" stroke="#16a34a" stroke-width="3" stroke-linecap="round"/>
</svg>
